<svg width="600" height="400" viewBox="0 0 600 400" fill="none" xmlns="http://www.w3.org/2000/svg">
  <rect width="600" height="400" fill="#F0F9FF"/>
  <rect x="170" y="100" width="260" height="200" rx="8" fill="white" stroke="#E6E8EB" stroke-width="2"/>
  <rect x="170" y="100" width="260" height="40" rx="8" fill="#0284C7" fill-opacity="0.1"/>
  <rect x="190" y="120" width="20" height="5" rx="2.5" fill="#E6E8EB"/>
  <rect x="230" y="120" width="20" height="5" rx="2.5" fill="#E6E8EB"/>
  <rect x="270" y="120" width="20" height="5" rx="2.5" fill="#E6E8EB"/>
  <rect x="310" y="120" width="20" height="5" rx="2.5" fill="#E6E8EB"/>
  <rect x="350" y="120" width="20" height="5" rx="2.5" fill="#E6E8EB"/>
  <rect x="390" y="120" width="20" height="5" rx="2.5" fill="#E6E8EB"/>
  <rect x="190" y="140" width="20" height="20" rx="2" fill="#F3F4F6"/>
  <rect x="230" y="140" width="20" height="20" rx="2" fill="#F3F4F6"/>
  <rect x="270" y="140" width="20" height="20" rx="2" fill="#F3F4F6"/>
  <rect x="310" y="140" width="20" height="20" rx="2" fill="#F3F4F6"/>
  <rect x="350" y="140" width="20" height="20" rx="2" fill="#F3F4F6"/>
  <rect x="390" y="140" width="20" height="20" rx="2" fill="#F3F4F6"/>
  <rect x="190" y="170" width="20" height="20" rx="2" fill="#F3F4F6"/>
  <rect x="230" y="170" width="20" height="20" rx="2" fill="#F3F4F6"/>
  <rect x="270" y="170" width="20" height="20" rx="2" fill="#0284C7" fill-opacity="0.1"/>
  <rect x="310" y="170" width="20" height="20" rx="2" fill="#0284C7" fill-opacity="0.3"/>
  <rect x="350" y="170" width="20" height="20" rx="2" fill="#F3F4F6"/>
  <rect x="390" y="170" width="20" height="20" rx="2" fill="#F3F4F6"/>
  <rect x="190" y="200" width="20" height="20" rx="2" fill="#F3F4F6"/>
  <rect x="230" y="200" width="20" height="20" rx="2" fill="#F3F4F6"/>
  <rect x="270" y="200" width="20" height="20" rx="2" fill="#F3F4F6"/>
  <rect x="310" y="200" width="20" height="20" rx="2" fill="#F3F4F6"/>
  <rect x="350" y="200" width="20" height="20" rx="2" fill="#0284C7" fill-opacity="0.1"/>
  <rect x="390" y="200" width="20" height="20" rx="2" fill="#F3F4F6"/>
  <rect x="190" y="230" width="20" height="20" rx="2" fill="#F3F4F6"/>
  <rect x="230" y="230" width="20" height="20" rx="2" fill="#F3F4F6"/>
  <rect x="270" y="230" width="20" height="20" rx="2" fill="#F3F4F6"/>
  <rect x="310" y="230" width="20" height="20" rx="2" fill="#F3F4F6"/>
  <rect x="350" y="230" width="20" height="20" rx="2" fill="#F3F4F6"/>
  <rect x="390" y="230" width="20" height="20" rx="2" fill="#0284C7" fill-opacity="0.2"/>
  <rect x="270" y="260" width="60" height="25" rx="12.5" fill="#0284C7" fill-opacity="0.1"/>
  <path d="M285 272H315" stroke="#0284C7" stroke-width="1.5"/>
  <path d="M295 262V282" stroke="#0284C7" stroke-width="1.5"/>
  <path d="M305 262V282" stroke="#0284C7" stroke-width="1.5"/>
  <rect x="205" y="145" width="10" height="10" rx="5" fill="#0284C7" fill-opacity="0.2"/>
  <rect x="245" y="145" width="10" height="10" rx="5" fill="#0284C7" fill-opacity="0.2"/>
  <rect x="285" y="145" width="10" height="10" rx="5" fill="#0284C7" fill-opacity="0.2"/>
  <rect x="325" y="145" width="10" height="10" rx="5" fill="#0284C7" fill-opacity="0.2"/>
  <rect x="365" y="145" width="10" height="10" rx="5" fill="#0284C7" fill-opacity="0.2"/>
  <circle cx="300" cy="350" r="20" fill="#0284C7" fill-opacity="0.1"/>
  <path d="M290 350H310" stroke="#0284C7" stroke-width="2"/>
  <path d="M300 340V360" stroke="#0284C7" stroke-width="2"/>
  <path d="M170 310C182.5 320 215.1 340 239.5 340C270.5 340 281 300 312 300C343 300 353.5 340 384.5 340C408.9 340 431.5 330 440 325" stroke="#0284C7" stroke-opacity="0.3" stroke-width="3"/>
</svg>
