<svg width="600" height="400" viewBox="0 0 600 400" fill="none" xmlns="http://www.w3.org/2000/svg">
  <rect width="600" height="400" fill="#F9FAFB"/>
  <circle cx="300" cy="200" r="80" fill="#E5E7EB"/>
  <path d="M300 150C313.807 150 325 161.193 325 175C325 188.807 313.807 200 300 200C286.193 200 275 188.807 275 175C275 161.193 286.193 150 300 150Z" fill="#9CA3AF"/>
  <path d="M300 220C325.405 220 346 240.595 346 266V270C346 275.523 341.523 280 336 280H264C258.477 280 254 275.523 254 270V266C254 240.595 274.595 220 300 220Z" fill="#9CA3AF"/>
  <path d="M170 320C187.833 300 229.3 260 256.5 260C291 260 297.5 320 332 320C366.5 320 373 260 407.5 260C434.7 260 468.167 280 480 290" stroke="#9CA3AF" stroke-opacity="0.5" stroke-width="3"/>
</svg>
