<svg width="600" height="400" viewBox="0 0 600 400" fill="none" xmlns="http://www.w3.org/2000/svg">
  <rect width="600" height="400" fill="#F9F5FF"/>
  <rect x="150" y="80" width="300" height="240" rx="8" fill="white" stroke="#E6E8EB" stroke-width="2"/>
  <circle cx="300" cy="170" r="60" fill="#6366F1" fill-opacity="0.1"/>
  <path d="M175 270C175 227.399 209.399 193 252 193C294.601 193 329 227.399 329 270" stroke="#6366F1" stroke-opacity="0.6" stroke-width="3"/>
  <path d="M270 270C270 237.386 296.386 211 329 211C361.614 211 388 237.386 388 270" stroke="#6366F1" stroke-opacity="0.6" stroke-width="3"/>
  <path d="M388 270C388 247.909 405.909 230 428 230" stroke="#6366F1" stroke-opacity="0.6" stroke-width="3"/>
  <circle cx="235" cy="150" r="20" fill="#FF9FDB"/>
  <circle cx="325" cy="120" r="15" fill="#FFD782"/>
  <circle cx="370" cy="175" r="25" fill="#72D16C"/>
  <rect x="200" y="330" width="200" height="16" rx="8" fill="#6366F1" fill-opacity="0.1"/>
  <rect x="220" y="330" width="160" height="16" rx="8" fill="#6366F1" fill-opacity="0.3"/>
  <path d="M150 310C152.667 317.333 162.2 332 178 332C198 332 198 310 218 310C238 310 238 332 258 332C278 332 278 310 298 310C318 310 318 332 338 332C358 332 358 310 378 310C398 310 398 332 418 332C433.2 332 443.333 317.333 446 310" stroke="#6366F1" stroke-opacity="0.2" stroke-width="3"/>
  <rect x="175" y="100" width="50" height="8" rx="4" fill="#E6E8EB"/>
  <rect x="175" y="114" width="30" height="8" rx="4" fill="#E6E8EB"/>
  <rect x="400" y="250" width="30" height="8" rx="4" fill="#E6E8EB"/>
</svg>
