<svg width="600" height="400" viewBox="0 0 600 400" fill="none" xmlns="http://www.w3.org/2000/svg">
  <rect width="600" height="400" fill="#F5F8FF"/>
  <circle cx="300" cy="200" r="90" fill="#0066CC" fill-opacity="0.1"/>
  <circle cx="300" cy="200" r="65" stroke="#0066CC" stroke-width="4"/>
  <path d="M345 245L375 275" stroke="#0066CC" stroke-width="6" stroke-linecap="round"/>
  <path d="M375 275L395 295" stroke="#0066CC" stroke-width="6" stroke-linecap="round" stroke-dasharray="1 8"/>
  <rect x="150" y="130" width="300" height="40" rx="20" fill="white" stroke="#E6E8EB" stroke-width="2"/>
  <circle cx="170" cy="150" r="10" fill="#F0F7FF"/>
  <rect x="190" y="145" width="120" height="10" rx="5" fill="#E6E8EB"/>
  <rect x="240" y="80" width="120" height="6" rx="3" fill="#E6E8EB"/>
  <rect x="265" y="90" width="70" height="6" rx="3" fill="#E6E8EB"/>
  <rect x="200" y="100" width="200" height="6" rx="3" fill="#E6E8EB"/>
  <rect x="220" y="210" width="160" height="10" rx="5" fill="#E6E8EB"/>
  <rect x="250" y="230" width="100" height="6" rx="3" fill="#E6E8EB"/>
  <rect x="150" y="260" width="100" height="40" rx="8" fill="white" stroke="#E6E8EB" stroke-width="2"/>
  <rect x="250" y="260" width="100" height="40" rx="8" fill="white" stroke="#E6E8EB" stroke-width="2"/>
  <rect x="350" y="260" width="100" height="40" rx="8" fill="white" stroke="#E6E8EB" stroke-width="2"/>
  <circle cx="185" cy="280" r="10" fill="#0066CC" fill-opacity="0.2"/>
  <circle cx="285" cy="280" r="10" fill="#0066CC" fill-opacity="0.2"/>
  <circle cx="385" cy="280" r="10" fill="#0066CC" fill-opacity="0.2"/>
  <path d="M212 280H235" stroke="#E6E8EB" stroke-width="2" stroke-linecap="round"/>
  <path d="M312 280H335" stroke="#E6E8EB" stroke-width="2" stroke-linecap="round"/>
  <path d="M412 280H435" stroke="#E6E8EB" stroke-width="2" stroke-linecap="round"/>
  <path d="M183 330L417 330" stroke="#E6E8EB" stroke-width="2" stroke-linecap="round" stroke-dasharray="4 12"/>
</svg>
