<svg width="120" height="40" viewBox="0 0 120 40" fill="none" xmlns="http://www.w3.org/2000/svg">
  <rect width="40" height="40" rx="8" fill="#0EA5E9"/>
  <path d="M10 20C10 14.4772 14.4772 10 20 10C25.5228 10 30 14.4772 30 20C30 25.5228 25.5228 30 20 30C14.4772 30 10 25.5228 10 20Z" stroke="white" strokeWidth="2"/>
  <path d="M15 20H25" stroke="white" strokeWidth="2" strokeLinecap="round"/>
  <path d="M20 15V25" stroke="white" strokeWidth="2" strokeLinecap="round"/>
  <path d="M18 17L22 23" stroke="white" strokeWidth="2" strokeLinecap="round"/>
  <path d="M22 17L18 23" stroke="white" strokeWidth="2" strokeLinecap="round"/>
  <path d="M45 15H49.5L52.5 25L55.5 15H60L55 30H50L45 15Z" fill="#111827"/>
  <path d="M62 15H67V17.5C67.6667 16.6667 68.5 16 69.5 15.5C70.5 15 71.5 14.75 72.5 14.75C74.5 14.75 76 15.5 77 17C78.1667 15.5 79.6667 14.75 81.5 14.75C83.1667 14.75 84.5 15.25 85.5 16.25C86.5 17.25 87 18.6667 87 20.5V30H82V22C82 21 81.75 20.25 81.25 19.75C80.75 19.25 80.0833 19 79.25 19C78.4167 19 77.75 19.25 77.25 19.75C76.75 20.25 76.5 21 76.5 22V30H71.5V22C71.5 21 71.25 20.25 70.75 19.75C70.25 19.25 69.5833 19 68.75 19C67.9167 19 67.25 19.25 66.75 19.75C66.25 20.25 66 21 66 22V30H62V15Z" fill="#111827"/>
  <path d="M90 15H95V17.5C95.6667 16.6667 96.5 16 97.5 15.5C98.5 15 99.5 14.75 100.5 14.75C102.5 14.75 104 15.5 105 17C106.167 15.5 107.667 14.75 109.5 14.75C111.167 14.75 112.5 15.25 113.5 16.25C114.5 17.25 115 18.6667 115 20.5V30H110V22C110 21 109.75 20.25 109.25 19.75C108.75 19.25 108.083 19 107.25 19C106.417 19 105.75 19.25 105.25 19.75C104.75 20.25 104.5 21 104.5 22V30H99.5V22C99.5 21 99.25 20.25 98.75 19.75C98.25 19.25 97.5833 19 96.75 19C95.9167 19 95.25 19.25 94.75 19.75C94.25 20.25 94 21 94 22V30H90V15Z" fill="#111827"/>
</svg>
